<?xml version="1.0" encoding="UTF-8" standalone="no"?>
<!-- Created with Inkscape (http://www.inkscape.org/) -->

<svg
   width="56.356251mm"
   height="56.356251mm"
   viewBox="0 0 56.356251 56.356251"
   version="1.1"
   id="svg44252"
   inkscape:version="1.1 (c68e22c387, 2021-05-23)"
   sodipodi:docname="COMSOL_CR.svg"
   xmlns:inkscape="http://www.inkscape.org/namespaces/inkscape"
   xmlns:sodipodi="http://sodipodi.sourceforge.net/DTD/sodipodi-0.dtd"
   xmlns="http://www.w3.org/2000/svg"
   xmlns:svg="http://www.w3.org/2000/svg">
  <sodipodi:namedview
     id="namedview44254"
     pagecolor="#ffffff"
     bordercolor="#666666"
     borderopacity="1.0"
     inkscape:pageshadow="2"
     inkscape:pageopacity="0.0"
     inkscape:pagecheckerboard="0"
     inkscape:document-units="mm"
     showgrid="false"
     inkscape:zoom="1.4823793"
     inkscape:cx="268.14998"
     inkscape:cy="125.81125"
     inkscape:window-width="1920"
     inkscape:window-height="1017"
     inkscape:window-x="-8"
     inkscape:window-y="-8"
     inkscape:window-maximized="1"
     inkscape:current-layer="layer1" />
  <defs
     id="defs44249" />
  <g
     inkscape:label="Layer 1"
     inkscape:groupmode="layer"
     id="layer1"
     transform="translate(-60.707696,-56.424038)">
    <g
       id="g42698"
       transform="matrix(0.26458333,0,0,0.26458333,302.89385,-23.489614)">
      <g
         id="g7558"
         transform="matrix(1.0002698,0,0,1.3868613,-389.31077,1270.1558)"
         style="fill:#3585c2;fill-opacity:1">
        <path
           class="st0"
           d="m -435.4229,-648.67334 h -43.20844 c -6.17263,0 -11.22297,3.6 -11.22297,8 v 0 c 0,1.9 0.98201,3.6 2.52517,5 v 0.1 l 43.20844,38.8 h 0.14028 c 2.10431,1.7 5.05034,2.9 8.55752,2.9 v 0 c 6.17263,0 11.22297,-3.6 11.22297,-8 v -38.8 c 0,-4.4 -5.05034,-8 -11.22297,-8"
           id="path7556"
           sodipodi:nodetypes="csssccccssssc"
           style="fill:#3585c2;fill-opacity:1;stroke-width:1.18443" />
      </g>
      <rect
         style="opacity:1;fill:#3585c2;fill-opacity:1;stroke-width:1.4017"
         id="rect8233"
         width="64.899506"
         height="76"
         x="-803.30078"
         y="370.53586"
         ry="11.138103" />
    </g>
  </g>
</svg>
